<?xml version="1.0" encoding="UTF-8" standalone="no"?>
<!-- Created with Inkscape (http://www.inkscape.org/) -->

<svg
   xmlns:dc="http://purl.org/dc/elements/1.1/"
   xmlns:cc="http://creativecommons.org/ns#"
   xmlns:rdf="http://www.w3.org/1999/02/22-rdf-syntax-ns#"
   xmlns:svg="http://www.w3.org/2000/svg"
   xmlns="http://www.w3.org/2000/svg"
   xmlns:sodipodi="http://sodipodi.sourceforge.net/DTD/sodipodi-0.dtd"
   xmlns:inkscape="http://www.inkscape.org/namespaces/inkscape"
   width="500"
   height="125"
   viewBox="0 0 132.29166 33.072938"
   version="1.1"
   id="svg6283"
   inkscape:version="0.92.3 (2405546, 2018-03-11)"
   sodipodi:docname="core-software.svg">
  <defs
     id="defs6277">
    <style
       id="style6878">.cls-1{fill:#09d3ac}</style>
  </defs>
  <sodipodi:namedview
     id="base"
     pagecolor="#ffffff"
     bordercolor="#666666"
     borderopacity="1.0"
     inkscape:pageopacity="0.0"
     inkscape:pageshadow="2"
     inkscape:zoom="1.979899"
     inkscape:cx="216.00603"
     inkscape:cy="9.0982565"
     inkscape:document-units="mm"
     inkscape:current-layer="layer1"
     showgrid="false"
     units="px"
     inkscape:window-width="1853"
     inkscape:window-height="1025"
     inkscape:window-x="67"
     inkscape:window-y="27"
     inkscape:window-maximized="1" />
  <metadata
     id="metadata6280">
    <rdf:RDF>
      <cc:Work
         rdf:about="">
        <dc:format>image/svg+xml</dc:format>
        <dc:type
           rdf:resource="http://purl.org/dc/dcmitype/StillImage" />
        <dc:title></dc:title>
      </cc:Work>
    </rdf:RDF>
  </metadata>
  <g
     inkscape:label="Layer 1"
     inkscape:groupmode="layer"
     id="layer1"
     transform="translate(0,-263.92664)">
    <g
       id="g7791"
       transform="matrix(0.88372614,0,0,0.88372614,-9.2447839,261.22337)">
      <g
         style="fill:none;stroke:#ffffff"
         transform="matrix(0.68543761,0,0,0.68543761,96.444131,8.770533)"
         id="g6854">
        <g
           id="g7018">
          <path
             id="path6828"
             d="m 18.983,18.636 c 0.163,-1.357 0.114,-1.555 1.124,-1.336 l 0.257,0.023 c 0.777,0.035 1.793,-0.125 2.4,-0.402 1.285,-0.596 2.047,-1.592 0.78,-1.33 -2.89,0.596 -3.1,-0.383 -3.1,-0.383 3.053,-4.53 4.33,-10.28 3.227,-11.687 -3.004,-3.84 -8.205,-2.024 -8.292,-1.976 L 15.351,1.55 c -0.57,-0.12 -1.2,-0.19 -1.93,-0.2 -1.308,-0.02 -2.3,0.343 -3.054,0.914 0,0 -9.277,-3.822 -8.846,4.807 0.092,1.836 2.63,13.9 5.66,10.25 C 8.29,15.987 9.36,14.86 9.36,14.86 c 0.53,0.353 1.167,0.533 1.834,0.468 l 0.052,-0.044 a 2.01,2.01 0 0 0 0.021,0.518 c -0.78,0.872 -0.55,1.025 -2.11,1.346 -1.578,0.325 -0.65,0.904 -0.046,1.056 0.734,0.184 2.432,0.444 3.58,-1.162 l -0.046,0.183 c 0.306,0.245 0.285,1.76 0.33,2.842 0.045,1.082 0.116,2.093 0.337,2.688 0.221,0.595 0.48,2.13 2.53,1.7 1.713,-0.367 3.023,-0.896 3.143,-5.81"
             inkscape:connector-curvature="0"
             style="fill:#000000;stroke:#000000;stroke-width:2.14899993" />
          <path
             id="path6830"
             d="m 23.535,15.6 c -2.89,0.596 -3.1,-0.383 -3.1,-0.383 3.053,-4.53 4.33,-10.28 3.228,-11.687 C 20.659,-0.31 15.458,1.507 15.371,1.554 L 15.343,1.559 A 10.31,10.31 0 0 0 13.414,1.358 c -1.308,-0.02 -2.3,0.343 -3.054,0.914 0,0 -9.278,-3.822 -8.846,4.807 0.092,1.836 2.63,13.9 5.66,10.25 C 8.29,15.987 9.36,14.86 9.36,14.86 c 0.53,0.353 1.167,0.533 1.834,0.468 l 0.052,-0.044 a 2.02,2.02 0 0 0 0.021,0.518 c -0.78,0.872 -0.55,1.025 -2.11,1.346 -1.578,0.325 -0.65,0.904 -0.046,1.056 0.734,0.184 2.432,0.444 3.58,-1.162 l -0.046,0.183 c 0.306,0.245 0.52,1.593 0.484,2.815 -0.036,1.222 -0.06,2.06 0.18,2.716 0.24,0.656 0.48,2.13 2.53,1.7 1.713,-0.367 2.6,-1.32 2.725,-2.906 0.088,-1.128 0.286,-0.962 0.3,-1.97 l 0.16,-0.478 c 0.183,-1.53 0.03,-2.023 1.085,-1.793 l 0.257,0.023 c 0.777,0.035 1.794,-0.125 2.39,-0.402 1.285,-0.596 2.047,-1.592 0.78,-1.33 z"
             inkscape:connector-curvature="0"
             style="fill:#336791;stroke:none" />
          <g
             id="g6844"
             style="stroke-width:0.71600002">
            <g
               id="g6836"
               style="stroke-linecap:round">
              <path
                 id="path6832"
                 d="m 12.814,16.467 c -0.08,2.846 0.02,5.712 0.298,6.4 0.278,0.688 0.875,2.05 2.926,1.612 1.713,-0.367 2.337,-1.078 2.607,-2.647 l 0.633,-5.017 M 10.356,2.2 c 0,0 -9.284,-3.796 -8.852,4.833 0.092,1.836 2.63,13.9 5.66,10.25 C 8.27,15.95 9.27,14.907 9.27,14.907 m 6.1,-13.4 c -0.32,0.1 5.164,-2.005 8.282,1.978 1.1,1.407 -0.175,7.157 -3.228,11.687"
                 inkscape:connector-curvature="0"
                 style="stroke-linejoin:round" />
              <path
                 id="path6834"
                 d="m 20.425,15.17 c 0,0 0.2,0.98 3.1,0.382 1.267,-0.262 0.504,0.734 -0.78,1.33 -1.054,0.49 -3.418,0.615 -3.457,-0.06 -0.1,-1.745 1.244,-1.215 1.147,-1.652 -0.088,-0.394 -0.69,-0.78 -1.086,-1.744 -0.347,-0.84 -4.76,-7.29 1.224,-6.333 0.22,-0.045 -1.56,-5.7 -7.16,-5.782 C 7.813,1.229 7.99,8.196 7.99,8.196"
                 inkscape:connector-curvature="0"
                 style="stroke-linejoin:bevel" />
            </g>
            <g
               id="g6842"
               style="stroke-linejoin:round">
              <path
                 id="path6838"
                 d="m 11.247,15.768 c -0.78,0.872 -0.55,1.025 -2.11,1.346 -1.578,0.325 -0.65,0.904 -0.046,1.056 0.734,0.184 2.432,0.444 3.58,-1.163 0.35,-0.49 -0.002,-1.27 -0.482,-1.468 -0.232,-0.096 -0.542,-0.216 -0.94,0.23 z"
                 inkscape:connector-curvature="0" />
              <path
                 id="path6840"
                 d="m 11.196,15.753 c -0.08,-0.513 0.168,-1.122 0.433,-1.836 0.398,-1.07 1.316,-2.14 0.582,-5.537 -0.547,-2.53 -4.22,-0.527 -4.22,-0.184 0,0.343 0.166,1.74 -0.06,3.365 -0.297,2.122 1.35,3.916 3.246,3.733"
                 inkscape:connector-curvature="0"
                 style="stroke-linecap:round" />
            </g>
          </g>
          <g
             id="g6850"
             style="fill:#ffffff">
            <path
               id="path6846"
               d="m 10.322,8.145 c -0.017,0.117 0.215,0.43 0.516,0.472 0.301,0.042 0.558,-0.202 0.575,-0.32 0.017,-0.118 -0.215,-0.246 -0.516,-0.288 -0.301,-0.042 -0.56,0.02 -0.575,0.136 z"
               inkscape:connector-curvature="0"
               style="stroke-width:0.23899999" />
            <path
               id="path6848"
               d="M 19.486,7.906 C 19.502,8.023 19.271,8.336 18.97,8.378 18.669,8.42 18.41,8.176 18.395,8.058 18.38,7.94 18.61,7.812 18.911,7.77 c 0.301,-0.042 0.56,0.02 0.575,0.136 z"
               inkscape:connector-curvature="0"
               style="stroke-width:0.119" />
          </g>
          <path
             id="path6852"
             d="m 20.562,7.095 c 0.05,0.92 -0.198,1.545 -0.23,2.524 -0.046,1.422 0.678,3.05 -0.413,4.68"
             inkscape:connector-curvature="0"
             style="stroke-width:0.71600002;stroke-linecap:round;stroke-linejoin:round" />
        </g>
      </g>
      <path
         style="fill:#09d3ac;stroke-width:0.14170302"
         inkscape:connector-curvature="0"
         d="m 75.414731,16.619372 c 0,-0.976334 -1.149211,-1.842137 -2.916245,-2.370692 0.425109,-1.795377 0.239475,-3.223744 -0.606491,-3.706951 a 1.353264,1.353264 0 0 0 -0.678758,-0.170044 c -0.789286,0 -1.786876,0.551225 -2.794384,1.504889 -1.007509,-0.946578 -2.002264,-1.49497 -2.790133,-1.49497 a 1.3405108,1.3405108 0 0 0 -0.688677,0.172876 c -0.841716,0.484628 -1.01601,1.90449 -0.59657,3.691367 -1.758534,0.525716 -2.902077,1.384439 -2.904911,2.356521 -0.0028,0.972082 1.150628,1.842137 2.917665,2.369273 -0.425109,1.796797 -0.240895,3.223743 0.606488,3.706951 a 1.3334256,1.3334256 0 0 0 0.677341,0.170044 c 0.790704,0 1.788292,-0.551225 2.795802,-1.504884 1.006091,0.946573 2.000846,1.494965 2.790132,1.494965 a 1.3589322,1.3589322 0 0 0 0.688675,-0.172876 c 0.841719,-0.484622 1.014596,-1.904489 0.596573,-3.684282 1.758534,-0.532801 2.90208,-1.391518 2.903493,-2.362187 z M 69.067853,12.196819 C 70.2284,11.158138 70.95392,11.046193 71.21182,11.046193 v 0 a 0.66742131,0.66742131 0 0 1 0.342921,0.08218 c 0.405271,0.230982 0.56681,1.045772 0.43786,2.125551 A 8.0388131,8.0388131 0 0 1 71.8509,14.074381 13.844387,13.844387 0 0 0 70.068276,13.78106 13.953498,13.953498 0 0 0 68.900643,12.352693 c 0.05243,-0.05243 0.109111,-0.104864 0.16721,-0.155877 z m -3.512819,5.226011 c 0.110529,0.212552 0.228143,0.425109 0.350007,0.63908 0.121865,0.213971 0.249397,0.430775 0.391101,0.644746 -0.384016,-0.05526 -0.756694,-0.124696 -1.110953,-0.206885 0.09919,-0.359925 0.225309,-0.714183 0.369845,-1.076941 z m -0.392517,-2.698027 c 0.358509,-0.0836 0.734022,-0.15304 1.123705,-0.206886 -0.141703,0.209719 -0.263567,0.425109 -0.3911,0.650418 -0.127533,0.225304 -0.239478,0.425109 -0.348589,0.640494 Q 65.329727,15.25619 65.162517,14.724803 Z m 0.738273,1.890317 q 0.263568,-0.556892 0.579565,-1.113784 c 0.212555,-0.371263 0.440697,-0.732606 0.675924,-1.07836 0.412356,-0.03117 0.837465,-0.0482 1.275327,-0.04676 0.437863,0.0016 0.850218,0.01703 1.25974,0.0496 0.235227,0.34292 0.460535,0.708511 0.673089,1.069856 0.212555,0.361344 0.408105,0.739693 0.583817,1.109536 -0.174295,0.371262 -0.368428,0.74394 -0.578149,1.112369 -0.20972,0.368424 -0.440696,0.734021 -0.675923,1.079775 -0.412356,0.03262 -0.837465,0.0482 -1.275327,0.0482 -0.437862,0 -0.850218,-0.01843 -1.25974,-0.05098 -0.235227,-0.342921 -0.461952,-0.700012 -0.674507,-1.069856 -0.212554,-0.369844 -0.401019,-0.739693 -0.578149,-1.109537 z m 4.656361,-2.09295 c 0.385433,0.05385 0.758112,0.123277 1.110954,0.205466 -0.104862,0.350006 -0.22956,0.708516 -0.374097,1.06986 -0.111946,-0.212557 -0.228142,-0.425109 -0.351424,-0.63908 C 70.819302,14.94444 70.688935,14.729055 70.56282,14.52217 Z m 0.391101,3.531236 q 0.182797,-0.321664 0.34859,-0.641914 c 0.141703,0.36843 0.283405,0.731188 0.382595,1.085446 -0.357089,0.0836 -0.732601,0.15162 -1.122286,0.205466 q 0.20547,-0.314578 0.396769,-0.648998 z m -2.526565,-5.218922 c 0.255066,0.27207 0.50588,0.566811 0.751026,0.882808 -0.242312,-0.0099 -0.490292,-0.01703 -0.741107,-0.01703 -0.250814,0 -0.507296,0 -0.755277,0.01703 0.242313,-0.314578 0.490293,-0.610738 0.745358,-0.882808 z m -3.142973,-1.700436 a 0.68300866,0.68300866 0 0 1 0.350006,-0.07935 1.8577268,1.8577268 0 0 1 0.735439,0.185634 5.5363378,5.5363378 0 0 1 1.41703,0.960745 l 0.165793,0.151624 a 13.956332,13.956332 0 0 0 -1.156297,1.417029 14.011596,14.011596 0 0 0 -1.792544,0.291908 c -0.06235,-0.274903 -0.113362,-0.54414 -0.141703,-0.803458 -0.14737,-1.069856 0.02267,-1.886065 0.420859,-2.11846 z m -0.74961,7.184342 a 8.3250537,8.3250537 0 0 1 -0.785035,-0.283403 c -1.006091,-0.425109 -1.629584,-0.970668 -1.629584,-1.436872 0,-0.466203 0.626327,-1.008924 1.631002,-1.426947 a 8.1663457,8.1663457 0 0 1 0.770865,-0.274903 13.876978,13.876978 0 0 0 0.646165,1.720274 13.988924,13.988924 0 0 0 -0.633413,1.701851 z m 3.259171,2.706532 c -1.160548,1.03868 -1.886068,1.149211 -2.145385,1.149211 a 0.66458723,0.66458723 0 0 1 -0.342921,-0.08219 c -0.405271,-0.230976 -0.566812,-1.045771 -0.437862,-2.125546 a 7.9452891,7.9452891 0 0 1 0.141703,-0.819043 14.100869,14.100869 0 0 0 1.782624,0.291908 13.769284,13.769284 0 0 0 1.167633,1.428366 z m 0.647583,-0.639086 c -0.255066,-0.272069 -0.505881,-0.56681 -0.752444,-0.882807 0.243729,0.01135 0.49171,0.01703 0.742524,0.01703 0.250815,0 0.507296,0 0.755277,-0.01559 -0.245146,0.314584 -0.494544,0.609324 -0.746774,0.881394 z m 3.142972,1.700437 a 0.68300866,0.68300866 0 0 1 -0.351423,0.08361 c -0.257899,0 -0.991921,-0.113365 -2.148218,-1.147797 l -0.165792,-0.15162 a 13.949247,13.949247 0 0 0 1.154879,-1.417029 13.745194,13.745194 0 0 0 1.793962,-0.291913 c 0.06234,0.274909 0.111945,0.54414 0.141702,0.803458 0.140287,1.068442 -0.02266,1.884651 -0.426527,2.115626 z m 1.530394,-4.030034 c -0.242314,0.09919 -0.498793,0.1913 -0.770863,0.273488 a 13.963418,13.963418 0 0 0 -0.647586,-1.720273 13.901068,13.901068 0 0 0 0.636248,-1.700437 8.3250537,8.3250537 0 0 1 0.785034,0.283408 c 1.004676,0.425109 1.629585,0.970662 1.628166,1.436866 -0.0016,0.466204 -0.626323,1.003258 -1.632419,1.421281 z m -4.687537,-0.144535 a 1.3008339,1.3008339 0 1 0 -1.299417,-1.30225 1.2994169,1.2994169 0 0 0 1.299417,1.30225 z M 59.777801,8.770441 V 24.449879 H 77.075493 V 8.770441 Z M 76.39957,23.775376 H 60.455142 V 9.446364 H 76.39957 Z M 64.35481,18.971641 c -0.425109,1.796797 -0.240895,3.223743 0.606489,3.706951 a 1.3334256,1.3334256 0 0 0 0.67734,0.170044 c 0.790703,0 1.788293,-0.551225 2.795802,-1.504884 1.006091,0.946573 2.000847,1.494965 2.790132,1.494965 a 1.3589322,1.3589322 0 0 0 0.688678,-0.172876 c 0.841714,-0.484622 1.014591,-1.904489 0.596567,-3.684282 1.758535,-0.527134 2.90208,-1.385852 2.903494,-2.35652 0.0016,-0.970663 -1.149212,-1.842138 -2.916246,-2.370693 0.42511,-1.795376 0.239481,-3.223743 -0.606491,-3.706951 A 1.353264,1.353264 0 0 0 71.21182,10.377351 c -0.789286,0 -1.786875,0.551226 -2.794384,1.50489 -1.007508,-0.946579 -2.002264,-1.494971 -2.790133,-1.494971 a 1.3405108,1.3405108 0 0 0 -0.688677,0.172882 c -0.841716,0.484622 -1.01601,1.904489 -0.59657,3.691361 -1.758535,0.525722 -2.902077,1.384439 -2.904912,2.356521 -0.0028,0.972082 1.152046,1.833638 2.919083,2.363607 z m 3.43063,2.053281 c -1.160547,1.03868 -1.886067,1.149211 -2.145384,1.149211 a 0.66458723,0.66458723 0 0 1 -0.342921,-0.08219 c -0.40527,-0.230976 -0.566812,-1.045771 -0.437862,-2.125546 a 7.9452891,7.9452891 0 0 1 0.141703,-0.819043 14.100869,14.100869 0 0 0 1.782624,0.291908 13.769284,13.769284 0 0 0 1.167633,1.428366 z m 3.512819,-5.227426 c -0.111946,-0.212557 -0.228142,-0.425109 -0.351423,-0.63908 -0.123283,-0.213976 -0.255066,-0.425109 -0.385433,-0.636246 0.385433,0.05385 0.758111,0.123277 1.110954,0.205466 -0.103445,0.350006 -0.228145,0.708516 -0.372681,1.06986 z m 0.385431,2.692356 c -0.35709,0.0836 -0.732604,0.15162 -1.122287,0.205472 q 0.199801,-0.314584 0.3911,-0.649004 0.191299,-0.334416 0.34859,-0.641914 c 0.148788,0.375516 0.277737,0.73544 0.379764,1.092532 z m -0.738271,-1.891737 c -0.174296,0.371263 -0.368429,0.74394 -0.578149,1.11237 -0.209721,0.368429 -0.440697,0.73402 -0.675924,1.07978 -0.412356,0.03262 -0.837465,0.0482 -1.275328,0.0482 -0.437861,0 -0.850217,-0.01843 -1.259739,-0.05099 -0.235227,-0.342926 -0.461952,-0.700018 -0.674506,-1.069862 -0.212555,-0.369843 -0.406688,-0.739687 -0.583817,-1.109536 q 0.263567,-0.556891 0.579565,-1.113783 c 0.212554,-0.371263 0.440697,-0.732607 0.675924,-1.078361 0.412356,-0.03117 0.837464,-0.0482 1.275327,-0.04676 0.437863,0.0016 0.850218,0.01703 1.25974,0.0496 0.235227,0.34292 0.460535,0.708517 0.673089,1.069856 0.212555,0.361344 0.409522,0.746777 0.585235,1.116621 z m -4.649277,2.108541 c -0.384016,-0.05526 -0.756694,-0.124696 -1.110953,-0.206885 0.104861,-0.348587 0.230976,-0.708517 0.375513,-1.069855 0.110529,0.212552 0.228143,0.425108 0.350007,0.639079 0.121865,0.213972 0.243729,0.42369 0.385433,0.637661 z M 65.90079,15.164082 c -0.123282,0.212553 -0.239479,0.425109 -0.34859,0.6405 Q 65.329727,15.25619 65.162517,14.724803 c 0.358509,-0.0836 0.734022,-0.15304 1.123705,-0.206886 -0.131784,0.209719 -0.257899,0.426523 -0.385432,0.646165 z m 2.533651,5.221754 c -0.255066,-0.272069 -0.505881,-0.56681 -0.752444,-0.882807 0.24373,0.01135 0.491709,0.01703 0.742524,0.01703 0.250815,0 0.507297,0 0.755277,-0.01559 -0.243729,0.314584 -0.493127,0.609324 -0.745357,0.881394 z m 3.142972,1.700437 a 0.68300866,0.68300866 0 0 1 -0.351423,0.08361 c -0.257899,0 -0.991922,-0.113365 -2.148218,-1.147797 l -0.165792,-0.15162 a 13.949247,13.949247 0 0 0 1.154879,-1.417029 13.745194,13.745194 0 0 0 1.79396,-0.291913 c 0.06235,0.274909 0.111945,0.54414 0.141701,0.803458 0.141707,1.068442 -0.02126,1.884651 -0.425107,2.115626 z m 0.74819,-7.178675 a 8.3250537,8.3250537 0 0 1 0.78504,0.283407 c 1.004671,0.42511 1.62958,0.970669 1.628166,1.436867 -0.0016,0.466203 -0.624909,1.014596 -1.631005,1.432619 -0.242308,0.09919 -0.498793,0.1913 -0.770863,0.273489 a 13.963418,13.963418 0 0 0 -0.647579,-1.720274 13.901068,13.901068 0 0 0 0.636241,-1.711774 z M 69.066436,12.20249 c 1.160547,-1.038685 1.886067,-1.15063 2.143967,-1.15063 v 0 a 0.66742131,0.66742131 0 0 1 0.342921,0.08219 c 0.405269,0.230976 0.566813,1.045766 0.437864,2.125546 a 8.0388131,8.0388131 0 0 1 -0.141707,0.820462 13.844387,13.844387 0 0 0 -1.782622,-0.293327 13.953498,13.953498 0 0 0 -1.167633,-1.428367 c 0.05385,-0.0581 0.110528,-0.11053 0.168627,-0.161543 z m -0.644749,0.631994 c 0.255066,0.27207 0.50588,0.566811 0.751026,0.882808 -0.242312,-0.0099 -0.490292,-0.01703 -0.741107,-0.01703 -0.250814,0 -0.507296,0 -0.755277,0.01703 0.242313,-0.314578 0.490293,-0.610738 0.745358,-0.882808 z m -3.142973,-1.700436 a 0.68300866,0.68300866 0 0 1 0.350006,-0.07935 1.8577268,1.8577268 0 0 1 0.735439,0.185634 5.5363378,5.5363378 0 0 1 1.41703,0.960745 l 0.165793,0.151624 a 13.956332,13.956332 0 0 0 -1.156297,1.417029 14.011596,14.011596 0 0 0 -1.792544,0.291908 c -0.06235,-0.274903 -0.113362,-0.54414 -0.141703,-0.803458 -0.14737,-1.069856 0.02267,-1.886065 0.420859,-2.11846 z m -1.533227,4.03712 a 8.1663457,8.1663457 0 0 1 0.770865,-0.274903 13.876978,13.876978 0 0 0 0.646165,1.720274 13.988924,13.988924 0 0 0 -0.636247,1.700436 8.3250537,8.3250537 0 0 1 -0.785034,-0.283407 c -1.006092,-0.425109 -1.629585,-0.970663 -1.629585,-1.436866 0,-0.466204 0.629161,-1.007511 1.633836,-1.425534 z m 4.6762,0.141702 a 1.3008339,1.3008339 0 1 0 1.299417,1.30225 1.2994169,1.2994169 0 0 0 -1.299417,-1.309336 z m 0,0 a 1.3008339,1.3008339 0 1 0 1.299417,1.30225 1.2994169,1.2994169 0 0 0 -1.299417,-1.309336 z m 0,0 a 1.3008339,1.3008339 0 1 0 1.299417,1.30225 1.2994169,1.2994169 0 0 0 -1.299417,-1.309336 z m 6.993044,1.309335 c 0,-0.976334 -1.149211,-1.842137 -2.916245,-2.370692 0.425109,-1.795377 0.239475,-3.223743 -0.606491,-3.706951 a 1.353264,1.353264 0 0 0 -0.678758,-0.170044 c -0.789286,0 -1.786876,0.551225 -2.794384,1.504889 -1.007509,-0.946578 -2.002264,-1.49497 -2.790133,-1.49497 a 1.3405108,1.3405108 0 0 0 -0.688677,0.172876 c -0.841716,0.484628 -1.01601,1.90449 -0.59657,3.691367 -1.758534,0.525716 -2.902077,1.384439 -2.904911,2.356521 -0.0028,0.972082 1.150628,1.842138 2.917665,2.369273 -0.425109,1.796797 -0.240895,3.223749 0.606488,3.706952 a 1.3334256,1.3334256 0 0 0 0.677341,0.170043 c 0.790704,0 1.788292,-0.55122 2.795802,-1.504884 1.006091,0.946579 2.000846,1.494965 2.790132,1.494965 a 1.3589322,1.3589322 0 0 0 0.688675,-0.172876 c 0.841719,-0.484622 1.014596,-1.904489 0.596573,-3.684276 1.758534,-0.53564 2.90208,-1.394357 2.903493,-2.365026 z M 69.067853,12.196819 C 70.2284,11.158138 70.95392,11.046193 71.21182,11.046193 v 0 a 0.66742131,0.66742131 0 0 1 0.342921,0.08218 c 0.405271,0.230982 0.56681,1.045772 0.43786,2.125551 A 8.0388131,8.0388131 0 0 1 71.8509,14.074381 13.844387,13.844387 0 0 0 70.068276,13.78106 13.953498,13.953498 0 0 0 68.900643,12.352693 c 0.05243,-0.05243 0.109111,-0.104864 0.16721,-0.155877 z m -3.512819,5.226011 c 0.110529,0.212552 0.228143,0.425109 0.350007,0.63908 0.121865,0.213971 0.249397,0.430775 0.391101,0.644746 -0.384016,-0.05526 -0.756694,-0.124696 -1.110953,-0.206885 0.09919,-0.359925 0.225309,-0.714183 0.369845,-1.076941 z m -0.392517,-2.698027 c 0.358509,-0.0836 0.734022,-0.15304 1.123705,-0.206886 -0.141703,0.209719 -0.263567,0.425109 -0.3911,0.650418 -0.127533,0.225304 -0.239478,0.425109 -0.348589,0.640494 Q 65.329727,15.25619 65.162517,14.724803 Z m 0.738273,1.890317 q 0.263568,-0.556892 0.579565,-1.113784 c 0.212555,-0.371263 0.440697,-0.732606 0.675924,-1.07836 0.412356,-0.03117 0.837465,-0.0482 1.275327,-0.04676 0.437863,0.0016 0.850218,0.01703 1.25974,0.0496 0.235227,0.34292 0.460535,0.708511 0.673089,1.069856 0.212555,0.361344 0.408105,0.739693 0.583817,1.109536 -0.174295,0.371262 -0.368428,0.74394 -0.578149,1.112369 -0.20972,0.368424 -0.440696,0.734021 -0.675923,1.079775 -0.412356,0.03262 -0.837465,0.0482 -1.275327,0.0482 -0.437862,0 -0.850218,-0.01843 -1.25974,-0.05098 -0.235227,-0.342921 -0.461952,-0.700012 -0.674507,-1.069856 -0.212554,-0.369844 -0.401019,-0.739693 -0.578149,-1.109537 z m 4.656361,-2.09295 c 0.385433,0.05385 0.758112,0.123277 1.110954,0.205466 -0.104862,0.350006 -0.22956,0.708516 -0.374097,1.06986 -0.111946,-0.212557 -0.228142,-0.425109 -0.351424,-0.63908 C 70.819302,14.94444 70.688935,14.729055 70.56282,14.52217 Z m 0.391101,3.531236 q 0.182797,-0.321664 0.34859,-0.641914 c 0.141703,0.36843 0.283405,0.731188 0.382595,1.085446 -0.357089,0.0836 -0.732601,0.15162 -1.122286,0.205466 q 0.20547,-0.314578 0.396769,-0.648998 z m -2.526565,-5.218922 c 0.255066,0.27207 0.50588,0.566811 0.751026,0.882808 -0.242312,-0.0099 -0.490292,-0.01703 -0.741107,-0.01703 -0.250814,0 -0.507296,0 -0.755277,0.01703 0.242313,-0.314578 0.490293,-0.610738 0.745358,-0.882808 z m -3.142973,-1.700436 a 0.68300866,0.68300866 0 0 1 0.350006,-0.07935 1.8577268,1.8577268 0 0 1 0.735439,0.185634 5.5363378,5.5363378 0 0 1 1.41703,0.960745 l 0.165793,0.151624 a 13.956332,13.956332 0 0 0 -1.156297,1.417029 14.011596,14.011596 0 0 0 -1.792544,0.291908 c -0.06235,-0.274903 -0.113362,-0.54414 -0.141703,-0.803458 -0.14737,-1.069856 0.02267,-1.886065 0.420859,-2.11846 z m -0.74961,7.184342 a 8.3250537,8.3250537 0 0 1 -0.785035,-0.283403 c -1.006091,-0.425109 -1.629584,-0.970668 -1.629584,-1.436872 0,-0.466203 0.626327,-1.008924 1.631002,-1.426947 a 8.1663457,8.1663457 0 0 1 0.770865,-0.274903 13.876978,13.876978 0 0 0 0.646165,1.720274 13.988924,13.988924 0 0 0 -0.633413,1.701851 z m 3.259171,2.706532 c -1.160548,1.03868 -1.886068,1.149211 -2.145385,1.149211 a 0.66458723,0.66458723 0 0 1 -0.342921,-0.08219 c -0.405271,-0.230976 -0.566812,-1.045771 -0.437862,-2.125546 a 7.9452891,7.9452891 0 0 1 0.141703,-0.819043 14.100869,14.100869 0 0 0 1.782624,0.291908 13.769284,13.769284 0 0 0 1.167633,1.428366 z m 0.647583,-0.639086 c -0.255066,-0.272069 -0.505881,-0.56681 -0.752444,-0.882807 0.243729,0.01135 0.49171,0.01703 0.742524,0.01703 0.250815,0 0.507296,0 0.755277,-0.01559 -0.245146,0.314584 -0.494544,0.609324 -0.746774,0.881394 z m 3.142972,1.700437 a 0.68300866,0.68300866 0 0 1 -0.351423,0.08361 c -0.257899,0 -0.991921,-0.113365 -2.148218,-1.147797 l -0.165792,-0.15162 a 13.949247,13.949247 0 0 0 1.154879,-1.417029 13.745194,13.745194 0 0 0 1.793962,-0.291913 c 0.06234,0.274909 0.111945,0.54414 0.141702,0.803458 0.140287,1.068442 -0.02266,1.884651 -0.426527,2.115626 z m 1.530394,-4.030034 c -0.242314,0.09919 -0.498793,0.1913 -0.770863,0.273488 a 13.963418,13.963418 0 0 0 -0.647586,-1.720273 13.901068,13.901068 0 0 0 0.636248,-1.700437 8.3250537,8.3250537 0 0 1 0.785034,0.283408 c 1.004676,0.425109 1.629585,0.970662 1.628166,1.436866 -0.0016,0.466204 -0.626323,1.003258 -1.632419,1.421281 z m -4.687537,-0.144535 a 1.3008339,1.3008339 0 1 0 -1.299417,-1.30225 1.2994169,1.2994169 0 0 0 1.299417,1.30225 z m -9.822854,7.722815 V 9.949409 l -0.678758,0.680174 v 15.680858 h 17.294856 l 0.677342,-0.675922 z"
         class="cls-1"
         id="path6882" />
      <g
         transform="matrix(0.05927678,0,0,0.05927678,135.41764,8.770441)"
         id="g6992">
        <path
           style="fill:#2f406a"
           inkscape:connector-curvature="0"
           d="m 219.013,94.362 v 106.594 l -90.576,53.588 -0.819,0.745 v 39.839 L 128.437,295.9 256,222.216 V 73.684 l -1.205,-0.295 -35.963,20.106 0.181,0.867"
           id="path6903" />
        <path
           style="fill:#2379bd"
           inkscape:connector-curvature="0"
           d="m 37.57,201.829 90.867,52.715 V 295.9 L 0,221.925 V 73.975 l 1.318,-0.199 35.859,20.848 0.393,1.194 v 106.011"
           id="path6905" />
        <path
           style="fill:#03afef"
           inkscape:connector-curvature="0"
           d="M 37.57,95.818 0,73.975 128.146,0 256,73.684 219.013,94.362 128.146,42.521 37.57,95.818"
           id="path6907" />
        <path
           style="fill:#2f406a"
           inkscape:connector-curvature="0"
           d="m 126.878,189.638 -0.984,-1.004 v -40.026 l 0.984,-0.508 0.239,-0.987 34.315,-20.017 1.05,0.235 v 41.242 l -35.604,21.065"
           id="path6909" />
        <path
           style="fill:#2379bd"
           inkscape:connector-curvature="0"
           d="m 90.68,169.858 v -42.823 l 0.995,-0.049 34.906,20.314 0.297,0.8 v 41.538 L 90.68,169.858"
           id="path6911" />
        <path
           style="fill:#03afef"
           inkscape:connector-curvature="0"
           d="M 126.284,105.969 90.68,127.035 126.878,148.1 162.482,127.331 126.284,105.969"
           id="path6913" />
        <path
           style="fill:#2f406a"
           inkscape:connector-curvature="0"
           d="m 82.57,215.748 -0.983,-1.004 v -40.027 l 0.983,-0.507 0.24,-0.987 34.314,-20.017 1.05,0.235 v 41.241 L 82.57,215.748"
           id="path6915" />
        <path
           style="fill:#2379bd"
           inkscape:connector-curvature="0"
           d="m 46.373,195.968 v -42.824 l 0.994,-0.049 34.906,20.315 0.297,0.8 v 41.538 l -36.197,-19.78"
           id="path6917" />
        <path
           style="fill:#03afef"
           inkscape:connector-curvature="0"
           d="M 81.977,132.079 46.373,153.144 82.57,174.21 118.174,153.441 81.977,132.079"
           id="path6919" />
        <path
           style="fill:#2f406a"
           inkscape:connector-curvature="0"
           d="m 174.35,216.737 -0.984,-1.004 v -40.027 l 0.984,-0.507 0.239,-0.987 34.315,-20.017 1.05,0.235 v 41.241 l -35.604,21.066"
           id="path6921" />
        <path
           style="fill:#2379bd"
           inkscape:connector-curvature="0"
           d="m 138.152,196.957 v -42.824 l 0.995,-0.049 34.906,20.315 0.297,0.8 v 41.538 l -36.198,-19.78"
           id="path6923" />
        <path
           style="fill:#03afef"
           inkscape:connector-curvature="0"
           d="m 173.756,133.068 -35.604,21.065 36.198,21.066 35.604,-20.769 -36.198,-21.362"
           id="path6925" />
        <path
           style="fill:#2f406a"
           inkscape:connector-curvature="0"
           d="m 130.042,242.847 -0.983,-1.004 v -40.027 l 0.983,-0.507 0.24,-0.988 34.315,-20.016 1.049,0.235 v 41.241 l -35.604,21.066"
           id="path6927" />
        <path
           style="fill:#2379bd"
           inkscape:connector-curvature="0"
           d="m 93.845,223.067 v -42.824 l 0.994,-0.049 34.907,20.314 0.296,0.801 v 41.538 l -36.197,-19.78"
           id="path6929" />
        <path
           style="fill:#03afef"
           inkscape:connector-curvature="0"
           d="m 129.449,159.177 -35.604,21.066 36.197,21.066 35.604,-20.769 -36.197,-21.363"
           id="path6931" />
        <path
           style="fill:#2f406a"
           inkscape:connector-curvature="0"
           d="m 126.878,132.87 -0.984,-1.005 V 91.839 l 0.984,-0.507 0.239,-0.988 34.315,-20.016 1.05,0.235 v 41.241 l -35.604,21.066"
           id="path6933" />
        <path
           style="fill:#2379bd"
           inkscape:connector-curvature="0"
           d="M 90.68,113.09 V 70.266 l 0.995,-0.049 34.906,20.314 0.297,0.801 V 132.87 L 90.68,113.09"
           id="path6935" />
        <path
           style="fill:#03afef"
           inkscape:connector-curvature="0"
           d="M 126.284,49.2 90.68,70.266 126.878,91.332 162.482,70.563 126.284,49.2"
           id="path6937" />
        <path
           style="fill:#2f406a"
           inkscape:connector-curvature="0"
           d="m 82.57,158.979 -0.983,-1.004 v -40.026 l 0.983,-0.508 0.24,-0.987 34.314,-20.017 1.05,0.235 v 41.242 L 82.57,158.979"
           id="path6939" />
        <path
           style="fill:#2379bd"
           inkscape:connector-curvature="0"
           d="M 46.373,139.199 V 96.376 l 0.994,-0.049 34.906,20.314 0.297,0.8 v 41.538 l -36.197,-19.78"
           id="path6941" />
        <path
           style="fill:#03afef"
           inkscape:connector-curvature="0"
           d="M 81.977,75.31 46.373,96.376 82.57,117.441 118.174,96.672 81.977,75.31"
           id="path6943" />
        <path
           style="fill:#2f406a"
           inkscape:connector-curvature="0"
           d="m 174.35,159.968 -0.984,-1.004 v -40.026 l 0.984,-0.508 0.239,-0.987 34.315,-20.017 1.05,0.235 v 41.242 l -35.604,21.065"
           id="path6945" />
        <path
           style="fill:#2379bd"
           inkscape:connector-curvature="0"
           d="M 138.152,140.188 V 97.365 l 0.995,-0.049 34.906,20.314 0.297,0.8 v 41.538 l -36.198,-19.78"
           id="path6947" />
        <path
           style="fill:#03afef"
           inkscape:connector-curvature="0"
           d="M 173.756,76.299 138.152,97.365 174.35,118.43 209.954,97.661 173.756,76.299"
           id="path6949" />
        <path
           style="fill:#2f406a"
           inkscape:connector-curvature="0"
           d="m 130.042,186.078 -0.983,-1.004 v -40.027 l 0.983,-0.507 0.24,-0.987 34.315,-20.017 1.049,0.235 v 41.241 l -35.604,21.066"
           id="path6951" />
        <path
           style="fill:#2379bd"
           inkscape:connector-curvature="0"
           d="m 93.845,166.298 v -42.824 l 0.994,-0.049 34.907,20.315 0.296,0.8 v 41.538 l -36.197,-19.78"
           id="path6953" />
        <path
           style="fill:#03afef"
           inkscape:connector-curvature="0"
           d="m 129.449,102.408 -35.604,21.066 36.197,21.066 35.604,-20.769 -36.197,-21.363"
           id="path6955" />
      </g>
      <path
         style="stroke-width:0.79442447"
         inkscape:connector-curvature="0"
         d="m 42.454899,24.532271 c -0.92471,0.235155 -1.496698,0.01054 -2.009891,-0.760264 l -3.649602,-5.049364 -0.527487,-0.699096 -4.262085,5.765135 c -0.486986,0.693546 -0.997799,0.995424 -1.906618,0.749946 l 5.457687,-7.326188 -5.081142,-6.617545 c 0.87388,-0.170017 1.477631,-0.08347 2.013869,0.699089 l 3.785435,5.112122 3.813241,-5.084323 c 0.488571,-0.693527 1.013691,-0.957271 1.890733,-0.701469 l -1.970185,2.612071 -2.669266,3.475594 c -0.317758,0.397223 -0.274074,0.668909 0.0183,1.052621 z m -25.415232,-7.442172 0.446466,-2.19578 c 1.21546,-4.345508 6.19651,-6.151232 9.631609,-3.46608 2.007504,1.579313 2.50641,3.813241 2.4071,6.315679 H 18.209056 c -0.170005,4.504382 3.072043,7.222908 7.205427,5.835836 1.449825,-0.486985 2.303841,-1.622208 2.731243,-3.042636 0.216871,-0.711811 0.575945,-0.823028 1.244855,-0.619649 -0.341605,1.77632 -1.112191,3.260314 -2.740757,4.18899 -2.433329,1.390242 -5.906557,0.940596 -7.733727,-0.991441 -1.088364,-1.120929 -1.538012,-2.541356 -1.739798,-4.060304 -0.03183,-0.25104 -0.09533,-0.490154 -0.142921,-0.730865 q 0.0061,-0.616487 0.0061,-1.232954 z m 1.190046,-0.301872 h 10.225828 c -0.06666,-3.25714 -2.094893,-5.570513 -4.866638,-5.590376 -3.042649,-0.02386 -5.227317,2.23473 -5.35919,5.590376 z"
         id="path6994" />
      <text
         id="text7022"
         y="32.798668"
         x="20.605103"
         style="font-style:normal;font-weight:normal;font-size:4.87861204px;line-height:1.25;font-family:sans-serif;letter-spacing:0px;word-spacing:0px;fill:#000000;fill-opacity:1;stroke:none;stroke-width:0.1219653"
         xml:space="preserve"><tspan
           style="stroke-width:0.1219653"
           y="32.798668"
           x="20.605103"
           id="tspan7020"
           sodipodi:role="line">Express</tspan></text>
      <g
         id="text7026"
         style="font-style:normal;font-weight:normal;font-size:4.57606649px;line-height:1.25;font-family:sans-serif;letter-spacing:0px;word-spacing:0px;fill:#000000;fill-opacity:1;stroke:none;stroke-width:0.11440166"
         aria-label="CRA
">
        <path
           id="path7678"
           style="stroke-width:0.11440166"
           d="m 64.489225,30.114537 v 0.475928 q -0.227909,-0.212268 -0.487101,-0.317285 -0.256956,-0.105018 -0.547429,-0.105018 -0.572009,0 -0.875888,0.350802 -0.30388,0.348568 -0.30388,1.009953 0,0.65915 0.30388,1.009952 0.303879,0.348567 0.875888,0.348567 0.290473,0 0.547429,-0.105017 0.259192,-0.105017 0.487101,-0.317286 v 0.47146 q -0.236847,0.160878 -0.502741,0.241316 -0.263661,0.08044 -0.558602,0.08044 -0.757464,0 -1.193174,-0.462522 -0.435709,-0.464757 -0.435709,-1.266909 0,-0.804387 0.435709,-1.266909 0.43571,-0.464757 1.193174,-0.464757 0.29941,0 0.56307,0.08044 0.265895,0.07821 0.498273,0.236848 z"
           inkscape:connector-curvature="0" />
        <path
           id="path7680"
           style="stroke-width:0.11440166"
           d="m 66.77279,31.629465 q 0.145236,0.04916 0.281535,0.210034 0.138533,0.160878 0.277067,0.442413 l 0.458053,0.911638 h -0.484866 l -0.426772,-0.855778 q -0.165346,-0.335161 -0.321755,-0.444647 -0.154174,-0.109486 -0.422303,-0.109486 h -0.49157 v 1.409911 h -0.45135 v -3.33597 h 1.01889 q 0.572008,0 0.853544,0.239081 0.281535,0.239082 0.281535,0.721714 0,0.315051 -0.147471,0.522851 -0.145236,0.2078 -0.424537,0.288239 z m -1.130611,-1.400974 v 1.184236 h 0.56754 q 0.326223,0 0.49157,-0.149705 0.16758,-0.15194 0.16758,-0.444647 0,-0.292707 -0.16758,-0.440178 -0.165347,-0.149706 -0.49157,-0.149706 z"
           inkscape:connector-curvature="0" />
        <path
           id="path7682"
           style="stroke-width:0.11440166"
           d="m 69.299905,30.302227 -0.612228,1.660165 h 1.22669 z M 69.045182,29.85758 h 0.511679 l 1.271378,3.33597 h -0.469225 l -0.30388,-0.855778 H 68.551378 L 68.247499,33.19355 H 67.77157 Z"
           inkscape:connector-curvature="0" />
      </g>
      <g
         id="text7032"
         style="font-style:normal;font-weight:normal;font-size:5.24886942px;line-height:1.25;font-family:sans-serif;letter-spacing:0px;word-spacing:0px;fill:#000000;fill-opacity:1;stroke:none;stroke-width:0.13122173"
         aria-label="Postgres">
        <path
           id="path7685"
           style="stroke-width:0.13122173"
           d="m 94.566207,29.494118 v 1.437801 h 0.650982 q 0.361373,0 0.558718,-0.187094 0.197345,-0.187093 0.197345,-0.533088 0,-0.343432 -0.197345,-0.530526 -0.197345,-0.187093 -0.558718,-0.187093 z m -0.517711,-0.425446 h 1.168693 q 0.643295,0 0.971349,0.292174 0.330617,0.28961 0.330617,0.850891 0,0.566406 -0.330617,0.856017 -0.328054,0.28961 -0.971349,0.28961 h -0.650982 v 1.537755 h -0.517711 z"
           inkscape:connector-curvature="0" />
        <path
           id="path7687"
           style="stroke-width:0.13122173"
           d="m 98.123546,30.355261 q -0.379313,0 -0.599724,0.297299 -0.220412,0.294736 -0.220412,0.809884 0,0.515148 0.217849,0.812447 0.220411,0.294736 0.602287,0.294736 0.37675,0 0.597161,-0.297299 0.220412,-0.297299 0.220412,-0.809884 0,-0.510022 -0.220412,-0.807321 -0.220411,-0.299862 -0.597161,-0.299862 z m 0,-0.399817 q 0.615102,0 0.966222,0.399817 0.351121,0.399816 0.351121,1.107183 0,0.704804 -0.351121,1.107183 -0.35112,0.399817 -0.966222,0.399817 -0.617665,0 -0.968786,-0.399817 -0.348557,-0.402379 -0.348557,-1.107183 0,-0.707367 0.348557,-1.107183 0.351121,-0.399817 0.968786,-0.399817 z"
           inkscape:connector-curvature="0" />
        <path
           id="path7689"
           style="stroke-width:0.13122173"
           d="m 102.04995,30.10922 v 0.445949 q -0.19991,-0.102517 -0.4152,-0.153776 -0.21528,-0.05126 -0.44595,-0.05126 -0.35112,0 -0.52796,0.107642 -0.17428,0.107643 -0.17428,0.322929 0,0.164027 0.12559,0.258855 0.12558,0.09227 0.50489,0.176842 l 0.16147,0.03588 q 0.50233,0.107643 0.71249,0.304988 0.21272,0.194782 0.21272,0.545903 0,0.399816 -0.3178,0.633042 -0.31524,0.233227 -0.86883,0.233227 -0.23067,0 -0.48183,-0.04613 -0.24861,-0.04357 -0.5254,-0.133272 v -0.486956 q 0.26142,0.135835 0.51515,0.205034 0.25373,0.06664 0.50233,0.06664 0.33318,0 0.51258,-0.112769 0.17941,-0.115331 0.17941,-0.322928 0,-0.192219 -0.13071,-0.294736 -0.12815,-0.102517 -0.56641,-0.197346 l -0.16402,-0.03844 q -0.43826,-0.09227 -0.63305,-0.281922 -0.19478,-0.192219 -0.19478,-0.5254 0,-0.404942 0.28705,-0.625353 0.28705,-0.220412 0.81501,-0.220412 0.26142,0 0.49208,0.03844 0.23066,0.03844 0.42545,0.115332 z"
           inkscape:connector-curvature="0" />
        <path
           id="path7691"
           style="stroke-width:0.13122173"
           d="m 103.42367,29.209633 v 0.81501 h 0.97135 v 0.366498 h -0.97135 V 31.9494 q 0,0.35112 0.0948,0.451074 0.0974,0.09995 0.39213,0.09995 h 0.48439 v 0.394691 h -0.48439 q -0.5459,0 -0.7535,-0.202471 -0.2076,-0.205034 -0.2076,-0.743248 v -1.558259 h -0.34599 v -0.366498 h 0.34599 v -0.81501 z"
           inkscape:connector-curvature="0" />
        <path
           id="path7693"
           style="stroke-width:0.13122173"
           d="m 106.90669,31.426563 q 0,-0.512585 -0.21272,-0.794507 -0.21016,-0.281921 -0.59204,-0.281921 -0.37931,0 -0.59204,0.281921 -0.21016,0.281922 -0.21016,0.794507 0,0.510022 0.21016,0.791944 0.21273,0.281921 0.59204,0.281921 0.38188,0 0.59204,-0.281921 0.21272,-0.281922 0.21272,-0.791944 z m 0.47158,1.112309 q 0,0.732997 -0.32549,1.089243 -0.3255,0.35881 -0.99698,0.35881 -0.24861,0 -0.46902,-0.03844 -0.22041,-0.03588 -0.42801,-0.112769 v -0.458763 q 0.2076,0.112768 0.41007,0.16659 0.20247,0.05382 0.41263,0.05382 0.46389,0 0.69456,-0.243478 0.23066,-0.240915 0.23066,-0.730433 v -0.233226 q -0.14609,0.253729 -0.37419,0.379312 -0.2281,0.125584 -0.5459,0.125584 -0.52796,0 -0.85089,-0.402379 -0.32293,-0.40238 -0.32293,-1.066177 0,-0.66636 0.32293,-1.06874 0.32293,-0.402379 0.85089,-0.402379 0.3178,0 0.5459,0.125584 0.2281,0.125583 0.37419,0.379312 v -0.435697 h 0.47158 z"
           inkscape:connector-curvature="0" />
        <path
           id="path7695"
           style="stroke-width:0.13122173"
           d="m 110.01295,30.465466 q -0.0795,-0.04613 -0.17428,-0.06664 -0.0923,-0.02307 -0.20503,-0.02307 -0.39982,0 -0.6151,0.261418 -0.21273,0.258856 -0.21273,0.745811 v 1.512126 h -0.47414 v -2.870476 h 0.47414 v 0.445949 q 0.14865,-0.261418 0.38701,-0.387001 0.23835,-0.128147 0.57922,-0.128147 0.0487,0 0.10764,0.0077 0.059,0.0051 0.13071,0.01794 z"
           inkscape:connector-curvature="0" />
        <path
           id="path7697"
           style="stroke-width:0.13122173"
           d="M 112.85524,31.341986 V 31.57265 H 110.687 q 0.0308,0.486955 0.29218,0.743248 0.26398,0.253729 0.73299,0.253729 0.27167,0 0.5254,-0.06664 0.25629,-0.06664 0.50746,-0.199908 v 0.445949 q -0.25373,0.107643 -0.52027,0.164027 -0.26655,0.05639 -0.54078,0.05639 -0.68686,0 -1.08924,-0.399817 -0.39982,-0.399816 -0.39982,-1.081554 0,-0.704804 0.37931,-1.117435 0.38188,-0.415194 1.02774,-0.415194 0.57922,0 0.91496,0.374187 0.33831,0.371624 0.33831,1.012354 z m -0.47158,-0.138397 q -0.005,-0.387002 -0.21785,-0.617665 -0.21016,-0.230663 -0.55872,-0.230663 -0.39469,0 -0.63304,0.222974 -0.23579,0.222974 -0.27167,0.627916 z"
           inkscape:connector-curvature="0" />
        <path
           id="path7699"
           style="stroke-width:0.13122173"
           d="m 115.45917,30.10922 v 0.445949 q -0.19991,-0.102517 -0.4152,-0.153776 -0.21528,-0.05126 -0.44595,-0.05126 -0.35112,0 -0.52796,0.107642 -0.17428,0.107643 -0.17428,0.322929 0,0.164027 0.12559,0.258855 0.12558,0.09227 0.50489,0.176842 l 0.16147,0.03588 q 0.50233,0.107643 0.71249,0.304988 0.21272,0.194782 0.21272,0.545903 0,0.399816 -0.3178,0.633042 -0.31524,0.233227 -0.86883,0.233227 -0.23067,0 -0.48183,-0.04613 -0.24861,-0.04357 -0.5254,-0.133272 v -0.486956 q 0.26142,0.135835 0.51515,0.205034 0.25373,0.06664 0.50233,0.06664 0.33318,0 0.51258,-0.112769 0.17941,-0.115331 0.17941,-0.322928 0,-0.192219 -0.13071,-0.294736 -0.12815,-0.102517 -0.56641,-0.197346 l -0.16402,-0.03844 q -0.43826,-0.09227 -0.63305,-0.281922 -0.19478,-0.192219 -0.19478,-0.5254 0,-0.404942 0.28705,-0.625353 0.28705,-0.220412 0.81501,-0.220412 0.26142,0 0.49208,0.03844 0.23066,0.03844 0.42545,0.115332 z"
           inkscape:connector-curvature="0" />
      </g>
      <g
         id="text7036"
         style="font-style:normal;font-weight:normal;font-size:4.51281309px;line-height:1.25;font-family:sans-serif;letter-spacing:0px;word-spacing:0px;fill:#000000;fill-opacity:1;stroke:none;stroke-width:0.11282033"
         aria-label="Sequelize">
        <path
           id="path7702"
           style="stroke-width:0.11282033"
           d="m 133.51002,29.590903 v 0.434094 q -0.25341,-0.121194 -0.47817,-0.180689 -0.22476,-0.0595 -0.43409,-0.0595 -0.36358,0 -0.5619,0.141026 -0.19611,0.141025 -0.19611,0.401041 0,0.218148 0.13,0.330528 0.13222,0.110176 0.498,0.178485 l 0.26883,0.05509 q 0.498,0.09475 0.73377,0.334936 0.23798,0.23798 0.23798,0.639021 0,0.478164 -0.32171,0.724959 -0.31951,0.246794 -0.9387,0.246794 -0.23358,0 -0.498,-0.05288 -0.26222,-0.05289 -0.54427,-0.15645 v -0.458333 q 0.27104,0.152043 0.53105,0.229166 0.26002,0.07712 0.51122,0.07712 0.38121,0 0.58834,-0.14984 0.20713,-0.149839 0.20713,-0.427483 0,-0.242388 -0.14984,-0.379006 -0.14764,-0.136618 -0.48698,-0.204928 l -0.27103,-0.05288 q -0.498,-0.09916 -0.72055,-0.310697 -0.22256,-0.211538 -0.22256,-0.58834 0,-0.436297 0.30629,-0.687499 0.30849,-0.251201 0.84836,-0.251201 0.23137,0 0.47155,0.04187 0.24018,0.04187 0.49139,0.125601 z"
           inkscape:connector-curvature="0" />
        <path
           id="path7704"
           style="stroke-width:0.11282033"
           d="m 136.49579,31.437455 v 0.198317 h -1.86418 q 0.0264,0.418669 0.2512,0.639021 0.22696,0.218149 0.63021,0.218149 0.23357,0 0.45172,-0.05729 0.22035,-0.05729 0.4363,-0.171875 v 0.383413 q -0.21815,0.09255 -0.44732,0.141026 -0.22916,0.04848 -0.46494,0.04848 -0.59055,0 -0.9365,-0.343749 -0.34375,-0.34375 -0.34375,-0.929887 0,-0.605968 0.32612,-0.960735 0.32833,-0.356971 0.88362,-0.356971 0.49799,0 0.78665,0.321714 0.29087,0.319511 0.29087,0.870392 z m -0.40545,-0.118991 q -0.004,-0.332731 -0.1873,-0.531048 -0.18069,-0.198317 -0.48037,-0.198317 -0.33934,0 -0.54427,0.191706 -0.20272,0.191707 -0.23357,0.539863 z"
           inkscape:connector-curvature="0" />
        <path
           id="path7706"
           style="stroke-width:0.11282033"
           d="m 137.40364,31.54102 q 0,0.447315 0.18289,0.702924 0.1851,0.253405 0.50681,0.253405 0.32172,0 0.50681,-0.253405 0.1851,-0.255609 0.1851,-0.702924 0,-0.447315 -0.1851,-0.70072 -0.18509,-0.255608 -0.50681,-0.255608 -0.32171,0 -0.50681,0.255608 -0.18289,0.253405 -0.18289,0.70072 z m 1.38161,0.861577 q -0.12781,0.220353 -0.32392,0.328325 -0.19391,0.105769 -0.46715,0.105769 -0.44731,0 -0.72936,-0.35697 -0.27985,-0.356971 -0.27985,-0.938701 0,-0.58173 0.27985,-0.9387 0.28205,-0.356971 0.72936,-0.356971 0.27324,0 0.46715,0.107973 0.19611,0.105769 0.32392,0.326121 v -0.374599 h 0.40545 v 3.406645 h -0.40545 z"
           inkscape:connector-curvature="0" />
        <path
           id="path7708"
           style="stroke-width:0.11282033"
           d="m 139.98396,31.798832 v -1.493988 h 0.40545 v 1.478564 q 0,0.35036 0.13662,0.526641 0.13662,0.174079 0.40985,0.174079 0.32833,0 0.51783,-0.209335 0.19171,-0.209335 0.19171,-0.570712 v -1.399237 h 0.40545 v 2.467945 h -0.40545 v -0.379006 q -0.14764,0.224759 -0.34375,0.334936 -0.19391,0.107972 -0.45172,0.107972 -0.42528,0 -0.64563,-0.264423 -0.22036,-0.264422 -0.22036,-0.773436 z m 1.02023,-1.553483 z"
           inkscape:connector-curvature="0" />
        <path
           id="path7710"
           style="stroke-width:0.11282033"
           d="m 145.00138,31.437455 v 0.198317 h -1.86418 q 0.0264,0.418669 0.25121,0.639021 0.22696,0.218149 0.6302,0.218149 0.23358,0 0.45172,-0.05729 0.22036,-0.05729 0.4363,-0.171875 v 0.383413 q -0.21815,0.09255 -0.44731,0.141026 -0.22917,0.04848 -0.46495,0.04848 -0.59054,0 -0.93649,-0.343749 -0.34375,-0.34375 -0.34375,-0.929887 0,-0.605968 0.32612,-0.960735 0.32832,-0.356971 0.88361,-0.356971 0.498,0 0.78666,0.321714 0.29086,0.319511 0.29086,0.870392 z m -0.40544,-0.118991 q -0.004,-0.332731 -0.1873,-0.531048 -0.18069,-0.198317 -0.48037,-0.198317 -0.33934,0 -0.54427,0.191706 -0.20273,0.191707 -0.23357,0.539863 z"
           inkscape:connector-curvature="0" />
        <path
           id="path7712"
           style="stroke-width:0.11282033"
           d="m 145.66685,29.344109 h 0.40545 v 3.42868 h -0.40545 z"
           inkscape:connector-curvature="0" />
        <path
           id="path7714"
           style="stroke-width:0.11282033"
           d="m 146.91845,30.304844 h 0.40545 v 2.467945 h -0.40545 z m 0,-0.960735 h 0.40545 v 0.51342 h -0.40545 z"
           inkscape:connector-curvature="0" />
        <path
           id="path7716"
           style="stroke-width:0.11282033"
           d="m 147.99377,30.304844 h 1.92587 v 0.370192 l -1.52483,1.773835 h 1.52483 v 0.323918 h -1.98096 v -0.370192 l 1.52484,-1.773835 h -1.46975 z"
           inkscape:connector-curvature="0" />
        <path
           id="path7718"
           style="stroke-width:0.11282033"
           d="m 152.65201,31.437455 v 0.198317 h -1.86418 q 0.0264,0.418669 0.2512,0.639021 0.22697,0.218149 0.63021,0.218149 0.23357,0 0.45172,-0.05729 0.22035,-0.05729 0.4363,-0.171875 v 0.383413 q -0.21815,0.09255 -0.44732,0.141026 -0.22916,0.04848 -0.46494,0.04848 -0.59054,0 -0.9365,-0.343749 -0.34375,-0.34375 -0.34375,-0.929887 0,-0.605968 0.32613,-0.960735 0.32832,-0.356971 0.88361,-0.356971 0.49799,0 0.78666,0.321714 0.29086,0.319511 0.29086,0.870392 z m -0.40545,-0.118991 q -0.004,-0.332731 -0.1873,-0.531048 -0.18069,-0.198317 -0.48036,-0.198317 -0.33935,0 -0.54427,0.191706 -0.20273,0.191707 -0.23358,0.539863 z"
           inkscape:connector-curvature="0" />
      </g>
    </g>
  </g>
</svg>
