<?xml version="1.0" encoding="UTF-8" standalone="no"?>
<!-- Created with Inkscape (http://www.inkscape.org/) -->

<svg
   xmlns:dc="http://purl.org/dc/elements/1.1/"
   xmlns:cc="http://creativecommons.org/ns#"
   xmlns:rdf="http://www.w3.org/1999/02/22-rdf-syntax-ns#"
   xmlns:svg="http://www.w3.org/2000/svg"
   xmlns="http://www.w3.org/2000/svg"
   xmlns:sodipodi="http://sodipodi.sourceforge.net/DTD/sodipodi-0.dtd"
   xmlns:inkscape="http://www.inkscape.org/namespaces/inkscape"
   version="1.1"
   id="svg2"
   width="900"
   height="900"
   viewBox="0 0 900 900"
   sodipodi:docname="sil-logo.svg"
   inkscape:version="0.92.4 (f8dce91, 2019-08-02)">
  <metadata
     id="metadata8">
    <rdf:RDF>
      <cc:Work
         rdf:about="">
        <dc:format>image/svg+xml</dc:format>
        <dc:type
           rdf:resource="http://purl.org/dc/dcmitype/StillImage" />
        <dc:title></dc:title>
      </cc:Work>
    </rdf:RDF>
  </metadata>
  <defs
     id="defs6" />
  <sodipodi:namedview
     pagecolor="#ffffff"
     bordercolor="#666666"
     borderopacity="1"
     objecttolerance="10"
     gridtolerance="10"
     guidetolerance="10"
     inkscape:pageopacity="0"
     inkscape:pageshadow="2"
     inkscape:window-width="1853"
     inkscape:window-height="1025"
     id="namedview4"
     showgrid="false"
     inkscape:zoom="0.57052034"
     inkscape:cx="285.09245"
     inkscape:cy="586.57868"
     inkscape:window-x="67"
     inkscape:window-y="27"
     inkscape:window-maximized="1"
     inkscape:current-layer="svg2" />
  <path
     inkscape:connector-curvature="0"
     id="path3717"
     d="m 413.24418,894.34932 c -94.1103,-8.144 -181.75502,-45.0366 -254.13275,-106.9729 -23.89887,-20.4512 -51.39214,-50.468 -70.113098,-76.54844 -9.588071,-13.35729 -26.248701,-39.72443 -26.251931,-41.54635 -10e-4,-0.81048 1.49215,-1.23605 4.24778,-1.21032 2.3375,0.0218 50.374999,-0.2269 106.749999,-0.55273 110.17053,-0.63675 111.08789,-0.67937 129.5064,-6.01684 31.08322,-9.00757 54.35836,-28.16569 67.39885,-55.47703 10.26901,-21.5069 13.12337,-45.10541 8.54004,-70.60509 -3.85613,-21.45385 -14.24068,-40.30948 -31.89468,-57.91243 -11.0372,-11.00528 -19.50808,-17.38613 -39.05061,-29.4156 -28.01013,-17.24174 -37.21188,-25.06704 -42.40285,-36.05996 -2.3268,-4.92748 -2.59715,-6.69708 -2.59715,-17 0,-13.3981 1.17027,-16.71957 8.4711,-24.04277 8.74171,-8.76847 20.19098,-12.35409 39.0289,-12.22283 13.82018,0.0963 22.48353,1.87148 35.19252,7.21123 3.97422,1.6698 7.55311,2.70263 7.95308,2.29518 1.08988,-1.11025 13.05801,-65.26784 12.464,-66.8158 -1.13542,-2.95884 -33.07325,-11.14295 -54.61034,-13.99397 -40.44252,-5.35366 -79.2743,6.18468 -104.33376,31.00137 -12.93034,12.80507 -21.02117,27.33477 -26.44681,47.49382 -2.32333,8.63235 -2.57965,11.39293 -2.6066,28.07377 -0.0281,17.41008 0.13246,19.0259 2.7258,27.42658 5.57985,18.07495 16.15696,35.09639 31.14027,50.11318 9.48698,9.50818 18.83139,16.69089 38.52184,29.61035 36.47843,23.93452 44.94138,35.78053 43.82341,61.34183 -0.33458,7.64994 -0.82915,9.84213 -3.09124,13.70211 -3.39819,5.79857 -7.61864,9.37599 -15.23217,12.91139 -12.36147,5.74013 -12.07,5.72638 -132.67367,6.25873 -60.870519,0.26868 -111.607209,0.24439 -112.748189,-0.054 -1.63924,-0.42867 -2.81188,-2.87865 -5.58869,-11.67634 -8.26592,-26.18867 -14.758,-57.56202 -18.1669802,-87.79299 -2.40898,-21.36287 -2.41126,-70.29975 -0.004,-91.64067 C 17.278751,313.6531 51.080131,233.506 108.15423,164.53162 c 13.12017,-15.8558 41.9662,-44.66112 57.69835,-57.61692 27.55977,-22.696129 54.21893,-39.924909 86.39189,-55.831729 46.79526,-23.13631 87.55488,-35.64617 140.63146,-43.1623405 12.68714,-1.79663 21.56429,-2.2561497 50.87972,-2.6337697 31.64057,-0.40757 37.56698,-0.22461 54.37226,1.6785497 53.24529,6.0298705 98.77875,19.1225505 146.11656,42.0143105 45.75521,22.12643 84.14255,49.57601 121,86.523279 72.26818,72.44428 115.69247,162.6804 127.52787,265.00412 1.5692,13.56718 1.9691,23.62458 1.9691,49.5245 0,35.37914 -1.4184,52.9011 -6.5186,80.5245 -4.146,22.45516 -14.0585,59.96724 -16.7071,63.2255 -0.8007,0.98495 -22.30028,1.25 -101.39371,1.25 l -100.37785,10e-6 v -148.3 c 0,-114.01111 -0.27746,-148.57746 -1.2,-149.5 -0.89089,-0.89089 -10.90956,-1.2 -38.89301,-1.2 -33.44861,0 -37.76136,0.17812 -38.3,1.58179 -0.79352,2.06788 -0.79352,367.76854 0,369.83642 0.54892,1.43046 12.31607,1.58179 123,1.58179 103.0622,0 122.39301,0.21673 122.39301,1.37223 0,3.33584 -16.40569,28.60542 -31.6042,48.67977 -14.67943,19.38879 -23.31653,29.14899 -43.12121,48.72839 -71.29012,70.4792 -162.1391,113.6909 -263.27325,125.2241 -14.36798,1.6385 -23.22403,1.9654 -49.5,1.8274 -17.60074,-0.092 -33.80134,-0.3239 -36.00134,-0.5142 z M 514.49683,483.09229 c 0.20123,-147.69161 -0.002,-185.60125 -1,-186.23469 -1.45047,-0.92094 -67.80198,-1.12801 -70.17086,-0.21898 -1.43451,0.55047 -1.58179,17.85362 -1.58179,185.83333 0,101.87449 0.3056,185.53194 0.6791,185.90545 0.37351,0.37351 16.68601,0.56101 36.25,0.41667 l 35.5709,-0.26244 z"
     style="opacity:1;vector-effect:none;fill:#005c99;fill-opacity:1;stroke-width:1;stroke-linecap:butt;stroke-linejoin:miter;stroke-miterlimit:4;stroke-dasharray:none;stroke-dashoffset:0;stroke-opacity:1"
     inkscape:export-xdpi="95.800003"
     inkscape:export-ydpi="95.800003" />
</svg>
